<svg xmlns="http://www.w3.org/2000/svg" version="1.1" style="font-family:'Unica One', sans-serif;font-size:12px;" width="800" height="1400">
	<rect x="0" y="0" width="800" height="400" strokeWidth="0" fill="url(http://www.highcharts.com/demo/3d-column-interactive/dark-unica#highcharts-1)" class=" highcharts-background"></rect>
	<g zIndex="3">
		<g visibility="visible" zIndex="10" transform="translate(75,75) scale(1 1)" style="" clip-path="url(http://www.highcharts.com/demo/3d-column-interactive/dark-unica#highcharts-2)">
			<g zIndex="-28.568012932994097" stroke="#2b908f" stroke-width="1" r="0">
				<path fill="rgba(68,169,168,1)" d="M 336 149 L 353 136 L 335 123 L 317 136 Z" zIndex="-1.4246212024587503" stroke-linejoin="round"/>
				<path fill="#2b908f" d="M 318 224 L 335 238 L 336 149 L 317 136 Z" zIndex="40.40863991822648" stroke-linejoin="round"/>
				<path fill="rgba(18,119,118,1)" d="M 336 149 L 335 238 L 351 225L 353 136 Z" zIndex="40.15863991822648" stroke-linejoin="round"/>
			</g>
		</g>
		<g zIndex="-28.568012932994097" stroke="#2b908f" stroke-width="1" r="0">
		<path 
			fill="rgba(68,169,168,1)"
			d="M 50 160 L 80 140 110 160 80 180 Z" stroke-linejoin="round">
		</path>
		<path 
			fill="rgba(68,169,168,1)"
			d="M 110 160 L 110 460 80 480  80 180Z" stroke-linejoin="round">
		</path>	
		<path 
			fill="rgba(68,169,168,1)"
			d="M 50 160 L 50 460 80 480  80 180Z" stroke-linejoin="round">
		</path>
	</g>
	<g zIndex="15850" stroke="#2b908f" stroke-width="1" stroke-linejoin="round"><path fill="#2b908f" d="M 474.46771779721433 56.42357750655273 C 562.0048488297535 56.410970522173685 632.9821677442008 106.57907407677475 632.9999967124902 168.4771730354986 C 633.0142662048178 218.0175857974212 590.065333797088 259.8110311551386 523.425987732358 275.103231012041 L 474.5 168.5 C 474.5 168.5 474.5 168.5 474.5 168.5 C 474.5 168.5 474.5 168.5 474.5 168.5 Z" zIndex="158.5" transform="translate(0,0)"></path></g>
	<path fill="rgba(18,119,118,1)" d="M 633 168.5 C 633 218.03238793387837 590.0545378079828 259.8135085867582 523.425987732358 275.103231012041 L 523.425987732358 293.6647840181879 C 590.0545378079828 278.37506159290507 633 236.59394094002525 633 187.06155300614688 Z" zIndex="150.7597350900205" transform="translate(0,0)"></path>
	</g>
	<g zIndex="15850" stroke="#90ee7e" stroke-width="1" stroke-linejoin="round"><path fill="#90ee7e" d="M 523.4244801325607 275.10357696568786 C 440.1619073472062 294.2097749187552 350.7600199282531 261.9703615033229 323.73977565764017 203.09483166776025 C 321.79266090589476 198.8521826557256 320.4353927251156 195.20335355691063 319.1784526326697 190.8323411605027 L 474.5 168.5 C 474.5 168.5 474.5 168.5 474.5 168.5 C 474.5 168.5 474.5 168.5 474.5 168.5 Z" zIndex="158.5" transform="translate(0,0)"></path></g>
	<path fill="rgba(119,213,101,1)" d="M 523.4244801325607 275.10357696568786 C 440.1619073472062 294.2097749187552 350.7600199282531 261.9703615033229 323.73977565764017 203.09483166776025 C 321.79266090589476 198.8521826557256 320.4353927251156 195.20335355691063 319.1784526326697 190.8323411605027 L 319.1784526326697 209.39389416664957 C 336.6210960623758 270.0507314459876 420.30097781762805 309.2242838649379 506.0826997487258 296.8904724139737 C 512.2642447610268 296.00168155105996 517.4244683593525 295.0419480165423 523.4244801325607 293.66512997183474 Z" zIndex="150.76022434235983" transform="translate(0,0)"></path>
</svg>

